:SAMPLES-PER-SECOND 30
:FULLY-SPECIFIED
:DEGREES
446
root  16.2638 31.1694 -69.3057 174.108 17.0334 -175.579
RightUpLeg  -5.57854 -17.6673 5.48335
RightLeg  51.6876 -4.65268 -5.19776
RightFoot  -10.746 0.0743811 1.16846
RightToes  -48.1793 -0.286894 -0.356514
Spine  5.97198 -5.12193 -5.41284
Spine1  12.3373 -10.5858 -9.61815
HEad  -35.0034 -36.8061 33.5686
LeftShoulder1  0 -2.42657e-020 -4.95415e-022
LeftArm  1.80997 -79.9588 -84.3466
LeftForeArm  21.5985 -69.5702 -28.4102
LeftHand  -0.153247 2.15177 -8.48903
RightShoulder  0 2.42657e-020 1.07489e-018
RightArm  -79.4761 32.8016 6.7077
RightForeArm  56.44 55.2333 14.725
RightHand  1.38722 18.6596 8.80184
LeftUpLeg  -10.2434 -2.51822 4.34095
LeftLeg  56.5791 4.28679 5.63474
LeftFoot  -14.2093 -0.24652 -1.97768
LeftToes  -22.7667 8.63562e-007 1.17448e-007
447
root  17.5724 30.8361 -69.2883 173.3 20.6387 -176.274
RightUpLeg  -7.94249 -16.1721 6.42391
RightLeg  58.1382 -2.95644 -4.20529
RightFoot  -7.84269 0.0084841 0.501363
RightToes  -56.1501 -0.358568 -0.387087
Spine  6.71252 -4.31165 -6.13335
Spine1  13.6139 -8.73937 -10.8546
HEad  -37.8647 -35.8607 34.9397
LeftShoulder1  0 -2.42657e-020 -4.95415e-022
LeftArm  -15.7039 -60.2446 -63.5296
LeftForeArm  59.2102 -79.1838 -68.5775
LeftHand  0.0170592 -0.212613 -9.86616
RightShoulder  0 2.42657e-020 1.07489e-018
RightArm  -60.9384 21.3144 27.8459
RightForeArm  94.5308 78.1075 57.5402
RightHand  0.605715 17.3122 4.34881
LeftUpLeg  -9.28494 1.37502 6.43624
LeftLeg  58.5127 4.56642 6.43666
LeftFoot  -13.706 -0.256337 -2.13269
LeftToes  -27.0048 8.63562e-007 1.17448e-007
448
root  18.8227 30.9234 -69.3017 173.862 22.3573 -176.081
RightUpLeg  -10.9883 -19.1841 5.62076
RightLeg  63.6855 1.52681 2.53171
RightFoot  0.861222 0.00481542 -0.262945
RightToes  -66.8081 -0.459695 -0.411901
Spine  6.93198 -4.48036 -6.26148
Spine1  13.7529 -8.78861 -11.5372
HEad  -39.3715 -34.0968 34.4731
LeftShoulder1  0 -2.42657e-020 -4.95415e-022
LeftArm  -16.3665 -36.8103 -60.4232
LeftForeArm  92.1909 -79.8011 -97.8524
LeftHand  0.216192 -2.5995 -9.90304
RightShoulder  0 2.42657e-020 1.07489e-018
RightArm  -43.75 10.152 46.1448
RightForeArm  161.576 77.5984 125.747
RightHand  0.323375 16.9459 2.54148
LeftUpLeg  -6.33654 3.13245 9.28984
LeftLeg  54.498 4.47164 5.45516
LeftFoot  -14.3274 -0.248927 -1.98036
LeftToes  -28.1671 8.63562e-007 1.17448e-007
449
root  19.9535 31.0472 -69.231 175.881 22.4913 -176.002
RightUpLeg  -15.1718 -23.2921 3.52148
RightLeg  69.4701 6.33399 13.6385
RightFoot  7.25397 -0.0805007 1.64732
RightToes  -63.2789 -0.425719 -0.405774
Spine  6.41307 -4.80106 -5.93147
Spine1  12.5562 -9.20194 -11.6212
HEad  -40.819 -32.252 35.4364
LeftShoulder1  0 -2.42657e-020 -4.95415e-022
LeftArm  -15.207 -19.2047 -64.6594
LeftForeArm  48.8684 -76.5399 -47.9608
LeftHand  0.271324 -3.53209 -9.17049
RightShoulder  0 2.42657e-020 1.07489e-018
RightArm  -28.8785 -1.95071 58.0335
RightForeArm  162.809 76.8226 130.276
RightHand  0.557985 17.8769 3.91793
LeftUpLeg  -5.07451 2.93078 11.6682
LeftLeg  49.6704 3.37395 3.47877
LeftFoot  -14.021 -0.167265 -1.36015
LeftToes  -31.662 8.63562e-007 1.17448e-007
450
root  21.0859 31.1439 -69.1645 177.945 23.3059 -175.669
RightUpLeg  -18.8936 -25.0959 1.64502
RightLeg  72.6771 7.88469 19.4943
RightFoot  5.49156 -0.072755 1.89422
RightToes  -65.9377 -0.451282 -0.410585
Spine  5.91252 -4.36138 -5.37864
Spine1  11.5386 -8.31088 -10.7792
HEad  -42.4688 -31.8966 37.0574
LeftShoulder1  0 -2.42657e-020 -4.95415e-022
LeftArm  -12.7184 -12.8781 -69.8748
LeftForeArm  25.4445 -57.7387 -16.2765
LeftHand  0.27122 -3.29102 -9.81049
RightShoulder  0 2.42657e-020 1.07489e-018
RightArm  -20.6012 -10.5422 66.1254
RightForeArm  102.748 79.5206 74.2966
RightHand  1.2108 18.5696 7.7689
LeftUpLeg  -4.03064 4.57977 14.6165
LeftLeg  45.6236 1.71561 1.53455
LeftFoot  -12.9919 -0.0775256 -0.680862
LeftToes  -35.1902 8.63562e-007 1.17448e-007
